<svg width="23" height="23" viewBox="0 0 23 23" fill="none" xmlns="http://www.w3.org/2000/svg">
<path d="M4.21667 20.125L10.2542 14.0875C10.7333 14.4708 11.2844 14.7743 11.9073 14.9979C12.5302 15.2215 13.1931 15.3333 13.8958 15.3333C15.6368 15.3333 17.1101 14.7305 18.3157 13.525C19.5219 12.3187 20.125 10.8451 20.125 9.10417C20.125 7.36319 19.5219 5.8896 18.3157 4.68338C17.1101 3.47779 15.6368 2.875 13.8958 2.875C12.1549 2.875 10.6813 3.47779 9.47504 4.68338C8.26946 5.8896 7.66667 7.36319 7.66667 9.10417C7.66667 9.80694 7.77847 10.4698 8.00208 11.0927C8.22569 11.7156 8.52917 12.2667 8.9125 12.7458L2.875 18.7833L4.21667 20.125ZM13.8958 13.4167C12.6979 13.4167 11.6795 12.9976 10.8407 12.1593C10.0024 11.3205 9.58333 10.3021 9.58333 9.10417C9.58333 7.90625 10.0024 6.88786 10.8407 6.049C11.6795 5.21078 12.6979 4.79167 13.8958 4.79167C15.0938 4.79167 16.1121 5.21078 16.951 6.049C17.7892 6.88786 18.2083 7.90625 18.2083 9.10417C18.2083 10.3021 17.7892 11.3205 16.951 12.1593C16.1121 12.9976 15.0938 13.4167 13.8958 13.4167Z" fill="black"/>
</svg>
